<?xml version="1.0" standalone="no"?>
<!DOCTYPE svg PUBLIC "-//W3C//DTD SVG 20010904//EN"
 "http://www.w3.org/TR/2001/REC-SVG-20010904/DTD/svg10.dtd">
<svg version="1.0" xmlns="http://www.w3.org/2000/svg"
 width="140.000000pt" height="90.000000pt" viewBox="0 0 140.000000 90.000000"
 preserveAspectRatio="xMidYMid meet">
<metadata>
Created by potrace 1.10, written by Peter Selinger 2001-2011
</metadata>
<g transform="translate(0.000000,90.000000) scale(0.100000,-0.100000)"
fill="#000000" stroke="none">
<path d="M690 755 c0 -47 3 -56 16 -53 13 2 17 15 17 53 0 38 -4 51 -17 53
-13 3 -16 -6 -16 -53z"/>
<path d="M525 749 c-4 -6 -5 -11 -3 -12 2 -1 20 -17 40 -36 24 -22 42 -31 53
-27 14 5 9 13 -26 46 -48 42 -54 46 -64 29z"/>
<path d="M832 724 c-41 -35 -52 -54 -31 -54 17 0 99 71 93 81 -9 15 -18 11
-62 -27z"/>
<path d="M636 648 c-49 -44 -40 -50 69 -48 55 1 101 3 104 5 2 2 -10 18 -27
35 -39 39 -107 43 -146 8z m123 -14 c11 -11 -12 -15 -65 -12 -54 3 -57 4 -34
15 22 11 87 9 99 -3z"/>
<path d="M457 643 c-4 -3 -7 -9 -7 -13 0 -10 110 -31 121 -24 16 10 0 22 -38
28 -21 4 -45 9 -54 12 -8 2 -18 1 -22 -3z"/>
<path d="M892 637 c-61 -11 -66 -34 -7 -28 51 4 88 19 80 31 -3 5 -9 9 -13 9
-4 -1 -31 -6 -60 -12z"/>
<path d="M160 478 l0 -118 25 0 c23 0 25 4 25 45 l0 45 45 0 c38 0 45 3 45 20
0 17 -7 20 -45 20 -44 0 -45 1 -45 33 l0 33 60 -4 c58 -4 60 -3 60 19 0 23 -2
24 -85 24 l-85 0 0 -117z m50 -2 c0 -2 -7 -9 -15 -16 -13 -11 -14 -10 -9 4 5
14 24 23 24 12z"/>
<path d="M374 585 c-4 -9 -2 -21 4 -27 15 -15 54 1 50 20 -4 23 -46 28 -54 7z"/>
<path d="M820 470 l0 -110 29 0 c28 0 29 2 24 35 -3 19 -3 35 1 35 4 0 20 -16
37 -35 25 -28 38 -35 68 -35 l36 1 -46 42 -45 42 50 47 51 47 -40 -5 c-29 -4
-49 -15 -71 -40 -17 -19 -35 -34 -39 -34 -4 0 -5 27 -3 60 l4 60 -28 0 -28 0
0 -110z m42 -27 c-6 -2 -10 -9 -7 -13 3 -5 1 -11 -5 -15 -5 -3 -10 0 -10 8 0
17 10 27 24 26 6 0 5 -3 -2 -6z"/>
<path d="M723 563 c-20 -8 -15 -31 8 -38 25 -8 44 7 36 29 -6 16 -21 19 -44 9z"/>
<path d="M555 524 c-14 -7 -25 -9 -25 -3 0 5 -11 9 -25 9 -25 0 -25 -1 -25
-85 0 -84 0 -85 25 -85 23 0 24 4 27 62 3 59 5 63 32 73 24 8 31 6 48 -15 16
-19 19 -35 16 -72 -5 -48 -5 -48 25 -48 l29 0 -4 64 c-4 74 -22 101 -69 108
-16 3 -41 -1 -54 -8z m-35 -28 c0 -3 -4 -8 -10 -11 -5 -3 -10 -1 -10 4 0 6 5
11 10 11 6 0 10 -2 10 -4z"/>
<path d="M370 445 l0 -85 30 0 30 0 0 85 0 85 -30 0 -30 0 0 -85z"/>
<path d="M1079 517 c-46 -35 -50 -88 -10 -128 24 -23 38 -29 74 -29 42 0 97
28 97 50 0 12 -48 6 -62 -8 -17 -17 -54 -15 -72 4 -28 28 -18 33 64 31 77 -2
80 -1 80 21 0 13 -11 34 -25 47 -20 20 -34 25 -77 25 -29 0 -60 -6 -69 -13z
m109 -29 c22 -22 13 -28 -43 -28 -56 0 -69 11 -37 29 23 14 65 14 80 -1z"/>
<path d="M720 430 c0 -68 1 -70 25 -70 24 0 25 2 25 70 0 68 -1 70 -25 70 -24
0 -25 -2 -25 -70z"/>
<path d="M460 240 c0 -73 3 -90 15 -90 10 0 15 10 15 32 l0 32 30 -29 c28 -27
70 -44 70 -27 0 4 -16 18 -35 32 l-35 25 42 38 c43 38 43 38 13 31 -16 -3 -40
-17 -52 -30 -12 -13 -25 -24 -28 -24 -3 0 -5 23 -5 50 0 38 -4 50 -15 50 -12
0 -15 -17 -15 -90z"/>
<path d="M625 320 c-8 -12 20 -24 35 -15 5 3 10 10 10 16 0 12 -37 12 -45 -1z"/>
<path d="M910 242 c0 -72 3 -89 15 -89 12 0 15 17 15 89 0 72 -3 88 -15 88
-12 0 -15 -16 -15 -88z"/>
<path d="M990 315 c0 -11 7 -15 23 -13 12 2 22 8 22 13 0 6 -10 11 -22 13 -16
2 -23 -2 -23 -13z"/>
<path d="M1077 243 c1 -71 5 -89 17 -91 12 -3 16 5 16 29 l0 33 33 -32 c18
-18 42 -32 52 -32 16 1 13 7 -19 35 l-38 34 28 25 c16 14 32 26 37 26 4 0 7 4
7 9 0 16 -44 -1 -72 -27 l-28 -26 0 52 c0 43 -3 52 -17 52 -16 0 -18 -10 -16
-87z"/>
<path d="M360 296 c0 -8 -6 -17 -12 -20 -10 -5 -10 -7 0 -12 7 -3 12 -24 12
-50 0 -39 3 -46 26 -54 35 -14 44 -13 44 5 0 8 -9 15 -20 15 -17 0 -20 7 -20
40 0 33 3 40 20 40 11 0 20 5 20 10 0 6 -9 10 -21 10 -15 0 -19 5 -15 15 4 10
-1 15 -14 15 -11 0 -20 -6 -20 -14z"/>
<path d="M204 276 c-48 -21 -59 -69 -23 -102 27 -25 93 -25 116 0 17 18 17 18
-7 13 -14 -2 -32 -7 -41 -11 -9 -4 -26 1 -40 13 l-24 20 68 1 c53 0 67 3 67
15 0 16 -35 55 -49 55 -5 0 -15 2 -23 5 -7 2 -27 -2 -44 -9z m74 -33 c2 -9
-10 -13 -43 -13 -42 0 -46 2 -35 16 15 18 71 15 78 -3z"/>
<path d="M787 283 c-4 -3 -23 -6 -42 -5 l-36 1 3 -62 c2 -47 7 -62 18 -62 11
0 16 14 20 50 4 43 8 50 28 53 35 5 52 -15 52 -63 0 -30 4 -42 15 -42 19 0 21
99 3 115 -19 14 -53 23 -61 15z"/>
<path d="M632 218 c2 -46 7 -63 17 -63 10 0 14 17 15 63 2 54 0 62 -16 62 -17
0 -19 -7 -16 -62z"/>
<path d="M992 218 c2 -50 6 -63 21 -66 15 -3 17 5 17 62 0 60 -2 66 -20 66
-19 0 -21 -5 -18 -62z"/>
<path d="M495 124 c-215 -21 -335 -40 -335 -53 0 -3 42 -1 93 6 216 31 777 27
955 -7 46 -8 69 4 26 14 -88 23 -257 37 -464 40 -129 2 -253 2 -275 0z"/>
<path d="M1203 23 c9 -2 23 -2 30 0 6 3 -1 5 -18 5 -16 0 -22 -2 -12 -5z"/>
</g>
</svg>

